<?xml version="1.0" standalone="no"?>
<!DOCTYPE svg PUBLIC "-//W3C//DTD SVG 20010904//EN"
 "http://www.w3.org/TR/2001/REC-SVG-20010904/DTD/svg10.dtd">
<svg version="1.0" xmlns="http://www.w3.org/2000/svg"
 width="250.000000pt" height="250.000000pt" viewBox="0 0 250.000000 250.000000"
 preserveAspectRatio="xMidYMid meet">
<metadata>
Created by potrace 1.15, written by Peter Selinger 2001-2017
</metadata>
<g transform="translate(0.000000,250.000000) scale(0.100000,-0.100000)"
fill="#000000" stroke="none">
<path d="M1410 1994 c-86 -11 -198 -37 -276 -66 -47 -16 -84 -31 -82 -32 2 0
208 1 458 4 l455 5 -80 27 c-44 15 -109 34 -145 43 -66 15 -266 27 -330 19z"/>
<path d="M887 1794 c-146 -107 -292 -316 -332 -476 -7 -26 -5 -28 24 -28 70 0
154 58 193 134 11 21 33 90 49 153 31 122 52 172 94 222 15 17 25 31 23 31 -1
0 -25 -16 -51 -36z"/>
<path d="M1040 1781 c-48 -25 -74 -67 -98 -158 -39 -147 -40 -144 11 -76 55
74 139 142 223 183 215 104 506 70 718 -84 28 -19 52 -34 54 -31 2 2 14 44 27
94 l23 91 -462 0 c-430 0 -464 -1 -496 -19z"/>
<path d="M513 1143 c-4 -21 -7 -83 -7 -138 2 -161 46 -264 156 -363 l26 -24
-24 48 c-30 59 -30 80 2 234 35 170 22 233 -56 264 -67 27 -88 22 -97 -21z"/>
<path d="M777 915 c-27 -121 -29 -143 -18 -178 7 -20 22 -39 37 -46 18 -8 157
-11 473 -11 l447 0 23 96 c13 52 21 97 19 100 -3 2 -56 -20 -119 -50 -63 -30
-154 -67 -204 -82 -80 -25 -106 -28 -240 -28 -147 -1 -151 0 -215 30 -97 46
-146 101 -175 199 l-12 40 -16 -70z"/>
<path d="M758 579 c14 -13 119 -47 187 -60 108 -22 328 -16 448 10 214 48 211
49 -235 53 -224 2 -404 0 -400 -3z"/>
</g>
</svg>
