<?xml version="1.0" standalone="no"?>
<!DOCTYPE svg PUBLIC "-//W3C//DTD SVG 20010904//EN"
 "http://www.w3.org/TR/2001/REC-SVG-20010904/DTD/svg10.dtd">
<svg version="1.0" xmlns="http://www.w3.org/2000/svg"
 width="260.000000pt" height="260.000000pt" viewBox="0 0 260.000000 260.000000"
 preserveAspectRatio="xMidYMid meet">
<metadata>
Created by potrace 1.11, written by Peter Selinger 2001-2013
</metadata>
<g transform="translate(0.000000,260.000000) scale(0.100000,-0.100000)"
fill="#000000" stroke="none">
<path d="M1358 2005 c-80 -15 -213 -60 -263 -89 -17 -10 -21 -14 -10 -10 45
15 228 23 555 24 383 1 384 1 185 57 -115 32 -346 41 -467 18z"/>
<path d="M960 1831 c-83 -61 -177 -160 -226 -236 -38 -60 -95 -185 -108 -238
l-7 -29 43 7 c81 14 144 60 182 134 8 14 28 79 44 143 36 136 58 183 108 232
21 20 35 36 33 36 -2 0 -33 -22 -69 -49z"/>
<path d="M1094 1811 c-49 -30 -73 -73 -100 -177 -13 -54 -22 -99 -20 -101 2
-2 13 12 25 31 12 19 51 62 88 96 215 202 564 212 825 25 26 -19 52 -35 56
-35 5 0 17 35 27 78 10 42 20 83 22 90 4 9 -89 12 -443 12 -423 0 -451 -1
-480 -19z"/>
<path d="M892 1389 c-13 -16 -50 -45 -83 -65 -32 -20 -59 -40 -59 -43 1 -3 15
-15 33 -26 17 -11 41 -37 53 -59 l22 -38 11 66 c6 36 20 94 31 128 11 34 18
63 17 64 -1 1 -12 -11 -25 -27z"/>
<path d="M586 1184 c-26 -193 18 -348 129 -453 62 -59 127 -93 232 -123 67
-19 103 -22 248 -23 156 0 179 2 285 30 63 16 108 30 100 32 -8 1 -179 4 -380
6 -396 4 -396 4 -450 62 -34 37 -39 130 -11 248 25 105 26 144 5 196 -18 45
-61 71 -117 71 -33 0 -34 -1 -41 -46z"/>
<path d="M856 1030 c-14 -37 -36 -155 -36 -191 0 -29 7 -47 25 -64 l24 -25
440 0 440 0 10 38 c32 123 40 157 37 160 -2 2 -44 -17 -92 -41 -187 -93 -346
-133 -499 -124 -183 11 -287 80 -331 222 -7 25 -14 35 -18 25z"/>
</g>
</svg>
